# xmcd
#
# Track frame offsets:
# 150
# 7562
# 17512
# 30215
# 50892
# 60607
# 71777
# 84415
# 108872
#
# Disc length: 4440 seconds
#
#
# Revision: 2
# Processed by: cddbd v1.5.2PL0 Copyright (c) Steve Scherf et al.
# Submitted via: FreeRIP 2.945 
#
DISCID=5f115609
DTITLE=Elvis Presley - Close Up Sampler [CD Single)
DYEAR=2003
DGENRE=Rock and Roll
TTITLE0=Lovin You
TTITLE1=Treat Me Nice
TTITLE2=G.I. Blues
TTITLE3=Doin`The Best I Can
TTITLE4=It Fels So Right
TTITLE5=The Girl Of Me Best Friend
TTITLE6=Polk Salad Annie
TTITLE7=How Great Thou Art
TTITLE8=---------
EXTD=
EXTT0=
EXTT1=
EXTT2=
EXTT3=
EXTT4=
EXTT5=
EXTT6=
EXTT7=
EXTT8=
PLAYORDER=
